<?xml version="1.0" encoding="UTF-8"?>
<svg id="Capa_1" xmlns="http://www.w3.org/2000/svg" version="1.1" viewBox="0 0 96 96">
  <!-- Generator: Adobe Illustrator 30.0.0, SVG Export Plug-In . SVG Version: 2.1.1 Build 123)  -->
  <defs>
    <style>
      .st0 {
        fill: none;
        stroke: #fff;
        stroke-linecap: round;
        stroke-linejoin: round;
        stroke-width: 5px;
      }
    </style>
  </defs>
  <path class="st0" d="M72,32c6.6,0,12,5.4,12,12s-5.4,12-12,12"/>
  <path class="st0" d="M40,32v44c0,2.2-1.8,4-4,4h-4c-2.2,0-4-1.8-4-4v-20"/>
  <path class="st0" d="M48,32h0l18.1-15.1c1.5-1.3,3.8-1.1,5.1.5.5.6.8,1.5.8,2.3v48.6c0,2-1.6,3.6-3.6,3.6-.8,0-1.7-.3-2.3-.8l-18.1-15.1H16c-2.2,0-4-1.8-4-4v-16c0-2.2,1.8-4,4-4h32"/>
</svg>